# xmcd
#
# Track frame offsets: 
#        150
#        17117
#        38150
#        54014
#        73476
#        89542
#        105609
#        122076
#        141557
#        163888
#
# Disc length: 2518 seconds
#
# Revision: 0
# Processed by: cddbd v1.5.2PL0 Copyright (c) Steve Scherf et al.
# Submitted via: ExactAudioCopy v0.99pb4
#
DISCID=9009d40a
DTITLE=The Redlands Palomino Company - Don't Fade
DYEAR=2011
DGENRE=Country
TTITLE0=Call Me Up
TTITLE1=Brass Bed
TTITLE2=1879
TTITLE3=Don't Fade
TTITLE4=She Rides Home
TTITLE5=Settle Down
TTITLE6=The Boat
TTITLE7=One A.M.
TTITLE8=Sleep Song
TTITLE9=Sirens
EXTD=
EXTT0=
EXTT1=
EXTT2=
EXTT3=
EXTT4=
EXTT5=
EXTT6=
EXTT7=
EXTT8=
EXTT9=
PLAYORDER=
